# xmcd
#
# Track frame offsets: 
#        150
#        17791
#        30853
#        42950
#        61872
#        75998
#        96983
#        107203
#        122278
#        140863
#        154748
#        169495
#        180199
#        193385
#        214423
#
# Disc length: 3076 seconds
#
# Revision: 0
# Processed by: cddbd v1.5.2PL0 Copyright (c) Steve Scherf et al.
# Submitted via: ExactAudioCopy v1.0b4
#
DISCID=c80c020f
DTITLE=Mike Monahan - Wilderness
DYEAR=2014
DGENRE=Blues Rock
TTITLE0=On The Bus
TTITLE1=Penetrate The Heart Of The Captains Rites
TTITLE2=Offshore
TTITLE3=Aboard The Jb
TTITLE4=The Savage Feast
TTITLE5=Salvage Yard
TTITLE6=By The Way
TTITLE7=I Think We Missed It
TTITLE8=Valley Meadow River
TTITLE9=Modern Cactus Concrete Minaret
TTITLE10=Ruins Of My Time
TTITLE11=Forsaken
TTITLE12=An Olive Branch In A Battlefie
TTITLE13=A Thin Sky Low In The Moon
TTITLE14=A Clean, Well-Lighted Place
EXTD=
EXTT0=
EXTT1=
EXTT2=
EXTT3=
EXTT4=
EXTT5=
EXTT6=
EXTT7=
EXTT8=
EXTT9=
EXTT10=
EXTT11=
EXTT12=
EXTT13=
EXTT14=
PLAYORDER=
